<svg width="21" height="22" viewBox="0 0 21 22" fill="none" xmlns="http://www.w3.org/2000/svg">
<path d="M9.60714 11.8929H5.14286C4.88988 11.8929 4.67798 11.8071 4.50715 11.6357C4.33631 11.4643 4.2506 11.2524 4.25 11C4.24941 10.7476 4.33512 10.5357 4.50715 10.3643C4.67917 10.1929 4.89107 10.1071 5.14286 10.1071H9.60714V5.64286C9.60714 5.38988 9.69286 5.17798 9.86429 5.00715C10.0357 4.83631 10.2476 4.7506 10.5 4.75C10.7524 4.74941 10.9646 4.83512 11.1366 5.00715C11.3086 5.17917 11.394 5.39107 11.3929 5.64286V10.1071H15.8571C16.1101 10.1071 16.3223 10.1929 16.4937 10.3643C16.6652 10.5357 16.7506 10.7476 16.75 11C16.7494 11.2524 16.6637 11.4646 16.4929 11.6366C16.322 11.8086 16.1101 11.894 15.8571 11.8929H11.3929V16.3571C11.3929 16.6101 11.3071 16.8223 11.1357 16.9937C10.9643 17.1652 10.7524 17.2506 10.5 17.25C10.2476 17.2494 10.0357 17.1637 9.86429 16.9929C9.69286 16.822 9.60714 16.6101 9.60714 16.3571V11.8929Z" fill="#6A6A6A"/>
</svg>
