<svg width="40" height="40" viewBox="0 0 40 40" fill="none" xmlns="http://www.w3.org/2000/svg">
<path d="M18.3333 21.6667V26.6667C18.3333 27.1389 18.4933 27.535 18.8133 27.855C19.1333 28.175 19.5289 28.3345 20 28.3333C20.4711 28.3322 20.8672 28.1722 21.1883 27.8533C21.5094 27.5345 21.6689 27.1389 21.6667 26.6667V21.6667H26.6667C27.1389 21.6667 27.535 21.5067 27.855 21.1867C28.175 20.8667 28.3344 20.4711 28.3333 20C28.3322 19.5289 28.1722 19.1333 27.8533 18.8133C27.5344 18.4933 27.1389 18.3333 26.6667 18.3333H21.6667V13.3333C21.6667 12.8611 21.5067 12.4656 21.1867 12.1467C20.8667 11.8278 20.4711 11.6678 20 11.6667C19.5289 11.6656 19.1333 11.8256 18.8133 12.1467C18.4933 12.4678 18.3333 12.8633 18.3333 13.3333V18.3333H13.3333C12.8611 18.3333 12.4656 18.4933 12.1467 18.8133C11.8278 19.1333 11.6678 19.5289 11.6667 20C11.6656 20.4711 11.8256 20.8672 12.1467 21.1883C12.4678 21.5095 12.8633 21.6689 13.3333 21.6667H18.3333ZM20 36.6667C17.6944 36.6667 15.5278 36.2289 13.5 35.3533C11.4722 34.4778 9.70833 33.2906 8.20833 31.7917C6.70833 30.2928 5.52111 28.5289 4.64666 26.5C3.77222 24.4711 3.33444 22.3045 3.33333 20C3.33222 17.6956 3.77 15.5289 4.64666 13.5C5.52333 11.4711 6.71055 9.70723 8.20833 8.20834C9.70611 6.70946 11.47 5.52223 13.5 4.64668C15.53 3.77112 17.6967 3.33334 20 3.33334C22.3033 3.33334 24.47 3.77112 26.5 4.64668C28.53 5.52223 30.2939 6.70946 31.7917 8.20834C33.2894 9.70723 34.4772 11.4711 35.355 13.5C36.2328 15.5289 36.67 17.6956 36.6667 20C36.6633 22.3045 36.2256 24.4711 35.3533 26.5C34.4811 28.5289 33.2939 30.2928 31.7917 31.7917C30.2894 33.2906 28.5256 34.4783 26.5 35.355C24.4744 36.2317 22.3078 36.6689 20 36.6667ZM20 33.3333C23.7222 33.3333 26.875 32.0417 29.4583 29.4583C32.0417 26.875 33.3333 23.7222 33.3333 20C33.3333 16.2778 32.0417 13.125 29.4583 10.5417C26.875 7.95834 23.7222 6.66668 20 6.66668C16.2778 6.66668 13.125 7.95834 10.5417 10.5417C7.95833 13.125 6.66666 16.2778 6.66666 20C6.66666 23.7222 7.95833 26.875 10.5417 29.4583C13.125 32.0417 16.2778 33.3333 20 33.3333Z" fill="#F73558"/>
</svg>
