<svg width="17" height="17" viewBox="0 0 17 17" fill="none" xmlns="http://www.w3.org/2000/svg">
<path d="M5 12V13.0938C5 13.2833 5.06213 13.4402 5.18638 13.5645C5.31063 13.6887 5.46725 13.7506 5.65625 13.75C5.84525 13.7494 6.00217 13.6873 6.127 13.5636C6.25183 13.44 6.31367 13.2833 6.3125 13.0938V12H7.40625C7.59583 12 7.75275 11.9379 7.877 11.8136C8.00125 11.6894 8.06308 11.5328 8.0625 11.3438C8.06192 11.1547 7.99979 10.9981 7.87612 10.8739C7.75246 10.7496 7.59583 10.6875 7.40625 10.6875H6.3125V9.59375C6.3125 9.40417 6.25037 9.24754 6.12612 9.12388C6.00187 9.00021 5.84525 8.93808 5.65625 8.9375C5.46725 8.93692 5.31063 8.99904 5.18638 9.12388C5.06213 9.24871 5 9.40533 5 9.59375V10.6875H3.90625C3.71667 10.6875 3.56004 10.7496 3.43637 10.8739C3.31271 10.9981 3.25058 11.1547 3.25 11.3438C3.24942 11.5328 3.31154 11.6897 3.43637 11.8145C3.56121 11.9393 3.71783 12.0012 3.90625 12H5ZM10.0312 13.0938H13.0938C13.2833 13.0938 13.4402 13.0316 13.5645 12.9074C13.6887 12.7831 13.7506 12.6265 13.75 12.4375C13.7494 12.2485 13.6873 12.0919 13.5636 11.9676C13.44 11.8434 13.2833 11.7812 13.0938 11.7812H10.0312C9.84167 11.7812 9.68504 11.8434 9.56138 11.9676C9.43771 12.0919 9.37558 12.2485 9.375 12.4375C9.37442 12.6265 9.43654 12.7834 9.56138 12.9082C9.68621 13.0331 9.84283 13.0949 10.0312 13.0938ZM10.0312 10.9062H13.0938C13.2833 10.9062 13.4402 10.8441 13.5645 10.7199C13.6887 10.5956 13.7506 10.439 13.75 10.25C13.7494 10.061 13.6873 9.90438 13.5636 9.78013C13.44 9.65588 13.2833 9.59375 13.0938 9.59375H10.0312C9.84167 9.59375 9.68504 9.65588 9.56138 9.78013C9.43771 9.90438 9.37558 10.061 9.375 10.25C9.37442 10.439 9.43654 10.5959 9.56138 10.7207C9.68621 10.8456 9.84283 10.9074 10.0312 10.9062ZM11.5625 6.35625L12.3281 7.12188C12.4594 7.25313 12.6125 7.31875 12.7875 7.31875C12.9625 7.31875 13.1156 7.25313 13.2469 7.12188C13.3635 7.00521 13.4254 6.85558 13.4324 6.673C13.4394 6.49042 13.3848 6.33379 13.2688 6.20312L12.4812 5.39375L13.2469 4.62812C13.3781 4.49687 13.4437 4.34375 13.4437 4.16875C13.4437 3.99375 13.3781 3.84063 13.2469 3.70938C13.1156 3.57813 12.9625 3.5125 12.7875 3.5125C12.6125 3.5125 12.4594 3.57813 12.3281 3.70938L11.5625 4.475L10.7969 3.70938C10.6656 3.57813 10.5125 3.5125 10.3375 3.5125C10.1625 3.5125 10.0094 3.57813 9.87813 3.70938C9.74688 3.84063 9.68125 3.99375 9.68125 4.16875C9.68125 4.34375 9.74688 4.49687 9.87813 4.62812L10.6438 5.39375L9.85625 6.20312C9.73958 6.33438 9.68125 6.4875 9.68125 6.6625C9.68125 6.8375 9.74688 6.99063 9.87813 7.12188C10.0094 7.25313 10.1625 7.31875 10.3375 7.31875C10.5125 7.31875 10.6656 7.25313 10.7969 7.12188L11.5625 6.35625ZM4.125 6.05H7.1875C7.37708 6.05 7.534 5.98817 7.65825 5.8645C7.7825 5.74083 7.84433 5.58392 7.84375 5.39375C7.84317 5.20358 7.78104 5.04696 7.65737 4.92387C7.53371 4.80079 7.37708 4.73867 7.1875 4.7375H4.125C3.93542 4.7375 3.77879 4.79962 3.65512 4.92387C3.53146 5.04812 3.46933 5.20475 3.46875 5.39375C3.46817 5.58275 3.53029 5.73967 3.65512 5.8645C3.77996 5.98933 3.93658 6.05117 4.125 6.05ZM2.375 16.375C1.89375 16.375 1.48192 16.2038 1.1395 15.8614C0.797083 15.519 0.625583 15.1068 0.625 14.625V2.375C0.625 1.89375 0.7965 1.48192 1.1395 1.1395C1.4825 0.797083 1.89433 0.625583 2.375 0.625H14.625C15.1063 0.625 15.5184 0.7965 15.8614 1.1395C16.2044 1.4825 16.3756 1.89433 16.375 2.375V14.625C16.375 15.1063 16.2038 15.5184 15.8614 15.8614C15.519 16.2044 15.1068 16.3756 14.625 16.375H2.375ZM2.375 14.625H14.625V2.375H2.375V14.625Z" fill="#F73558"/>
</svg>
