<svg width="21" height="21" viewBox="0 0 21 21" fill="none" xmlns="http://www.w3.org/2000/svg">
<path d="M7 14V15.0938C7 15.2833 7.06213 15.4402 7.18638 15.5645C7.31063 15.6888 7.46725 15.7506 7.65625 15.75C7.84525 15.7494 8.00217 15.6873 8.127 15.5636C8.25183 15.44 8.31367 15.2833 8.3125 15.0938V14H9.40625C9.59583 14 9.75275 13.9379 9.877 13.8136C10.0012 13.6894 10.0631 13.5328 10.0625 13.3438C10.0619 13.1547 9.99979 12.9981 9.87612 12.8739C9.75246 12.7496 9.59583 12.6875 9.40625 12.6875H8.3125V11.5938C8.3125 11.4042 8.25037 11.2475 8.12612 11.1239C8.00187 11.0002 7.84525 10.9381 7.65625 10.9375C7.46725 10.9369 7.31063 10.999 7.18638 11.1239C7.06213 11.2487 7 11.4053 7 11.5938V12.6875H5.90625C5.71667 12.6875 5.56004 12.7496 5.43637 12.8739C5.31271 12.9981 5.25058 13.1547 5.25 13.3438C5.24942 13.5328 5.31154 13.6897 5.43637 13.8145C5.56121 13.9393 5.71783 14.0012 5.90625 14H7ZM12.0312 15.0938H15.0938C15.2833 15.0938 15.4402 15.0316 15.5645 14.9074C15.6888 14.7831 15.7506 14.6265 15.75 14.4375C15.7494 14.2485 15.6873 14.0919 15.5636 13.9676C15.44 13.8434 15.2833 13.7812 15.0938 13.7812H12.0312C11.8417 13.7812 11.685 13.8434 11.5614 13.9676C11.4377 14.0919 11.3756 14.2485 11.375 14.4375C11.3744 14.6265 11.4365 14.7834 11.5614 14.9082C11.6862 15.0331 11.8428 15.0949 12.0312 15.0938ZM12.0312 12.9062H15.0938C15.2833 12.9062 15.4402 12.8441 15.5645 12.7199C15.6888 12.5956 15.7506 12.439 15.75 12.25C15.7494 12.061 15.6873 11.9044 15.5636 11.7801C15.44 11.6559 15.2833 11.5938 15.0938 11.5938H12.0312C11.8417 11.5938 11.685 11.6559 11.5614 11.7801C11.4377 11.9044 11.3756 12.061 11.375 12.25C11.3744 12.439 11.4365 12.5959 11.5614 12.7207C11.6862 12.8456 11.8428 12.9074 12.0312 12.9062ZM13.5625 8.35625L14.3281 9.12188C14.4594 9.25313 14.6125 9.31875 14.7875 9.31875C14.9625 9.31875 15.1156 9.25313 15.2469 9.12188C15.3635 9.00521 15.4254 8.85558 15.4324 8.673C15.4394 8.49042 15.3848 8.33379 15.2688 8.20312L14.4812 7.39375L15.2469 6.62812C15.3781 6.49687 15.4437 6.34375 15.4437 6.16875C15.4437 5.99375 15.3781 5.84063 15.2469 5.70938C15.1156 5.57813 14.9625 5.5125 14.7875 5.5125C14.6125 5.5125 14.4594 5.57813 14.3281 5.70938L13.5625 6.475L12.7969 5.70938C12.6656 5.57813 12.5125 5.5125 12.3375 5.5125C12.1625 5.5125 12.0094 5.57813 11.8781 5.70938C11.7469 5.84063 11.6813 5.99375 11.6813 6.16875C11.6813 6.34375 11.7469 6.49687 11.8781 6.62812L12.6438 7.39375L11.8562 8.20312C11.7396 8.33437 11.6813 8.4875 11.6813 8.6625C11.6813 8.8375 11.7469 8.99063 11.8781 9.12188C12.0094 9.25313 12.1625 9.31875 12.3375 9.31875C12.5125 9.31875 12.6656 9.25313 12.7969 9.12188L13.5625 8.35625ZM6.125 8.05H9.1875C9.37708 8.05 9.534 7.98817 9.65825 7.8645C9.7825 7.74083 9.84433 7.58392 9.84375 7.39375C9.84317 7.20358 9.78104 7.04696 9.65737 6.92387C9.53371 6.80079 9.37708 6.73867 9.1875 6.7375H6.125C5.93542 6.7375 5.77879 6.79962 5.65512 6.92387C5.53146 7.04812 5.46933 7.20475 5.46875 7.39375C5.46817 7.58275 5.53029 7.73967 5.65512 7.8645C5.77996 7.98933 5.93658 8.05117 6.125 8.05ZM4.375 18.375C3.89375 18.375 3.48192 18.2038 3.1395 17.8614C2.79708 17.519 2.62558 17.1068 2.625 16.625V4.375C2.625 3.89375 2.7965 3.48192 3.1395 3.1395C3.4825 2.79708 3.89433 2.62558 4.375 2.625H16.625C17.1062 2.625 17.5184 2.7965 17.8614 3.1395C18.2044 3.4825 18.3756 3.89433 18.375 4.375V16.625C18.375 17.1062 18.2038 17.5184 17.8614 17.8614C17.519 18.2044 17.1068 18.3756 16.625 18.375H4.375ZM4.375 16.625H16.625V4.375H4.375V16.625Z" fill="#F73558"/>
</svg>
