<svg width="17" height="12" viewBox="0 0 17 12" fill="none" xmlns="http://www.w3.org/2000/svg">
<path d="M15.9505 0.409577C16.2468 0.682827 16.4197 1.05968 16.4313 1.45728C16.4428 1.85487 16.292 2.24066 16.012 2.52982L7.29823 11.5309C7.157 11.6765 6.98729 11.793 6.79912 11.8736C6.61095 11.9541 6.40815 11.9971 6.20268 11.9999C5.99721 12.0027 5.79325 11.9652 5.60286 11.8898C5.41246 11.8144 5.23948 11.7026 5.09414 11.5609L0.480948 7.06034C0.209323 6.77596 0.061448 6.39983 0.0684769 6.01118C0.0755058 5.62253 0.23689 5.25172 0.518629 4.97686C0.800368 4.702 1.18046 4.54456 1.57884 4.5377C1.97722 4.53085 2.36277 4.67511 2.65428 4.9401L6.15005 8.34849L13.7772 0.469584C14.0573 0.180545 14.4436 0.0118539 14.8511 0.000601156C15.2587 -0.0106516 15.6541 0.136455 15.9505 0.409577Z" fill="white"/>
</svg>
