<svg width="24" height="24" viewBox="0 0 24 24" fill="none" xmlns="http://www.w3.org/2000/svg">
<path d="M11.9999 13.4L9.0829 16.325C8.89824 16.5083 8.66357 16.6 8.3789 16.6C8.09424 16.6 7.85957 16.5083 7.6749 16.325C7.49157 16.1417 7.3999 15.9083 7.3999 15.625C7.3999 15.3417 7.49157 15.1083 7.6749 14.925L10.5999 12L7.6749 9.10799C7.49157 8.92332 7.3999 8.68865 7.3999 8.40399C7.3999 8.11932 7.49157 7.88465 7.6749 7.69999C7.85824 7.51665 8.09157 7.42499 8.3749 7.42499C8.65824 7.42499 8.89157 7.51665 9.0749 7.69999L11.9999 10.625L14.8919 7.69999C15.0766 7.51665 15.3112 7.42499 15.5959 7.42499C15.8806 7.42499 16.1152 7.51665 16.2999 7.69999C16.4999 7.89999 16.5999 8.13765 16.5999 8.41299C16.5999 8.68832 16.4999 8.91732 16.2999 9.09999L13.3749 12L16.2999 14.917C16.4832 15.1017 16.5749 15.3363 16.5749 15.621C16.5749 15.9057 16.4832 16.1403 16.2999 16.325C16.0999 16.525 15.8626 16.625 15.5879 16.625C15.3132 16.625 15.0839 16.525 14.8999 16.325L11.9999 13.4Z" fill="#6A6A6A"/>
</svg>
