<svg width="21" height="21" viewBox="0 0 21 21" fill="none" xmlns="http://www.w3.org/2000/svg">
<path d="M10.5 11.725L6.21251 16.0125C6.0521 16.1729 5.84793 16.2531 5.60001 16.2531C5.3521 16.2531 5.14793 16.1729 4.98751 16.0125C4.8271 15.8521 4.74689 15.6479 4.74689 15.4C4.74689 15.1521 4.8271 14.9479 4.98751 14.7875L9.27501 10.5L4.98751 6.21251C4.8271 6.0521 4.74689 5.84793 4.74689 5.60001C4.74689 5.3521 4.8271 5.14793 4.98751 4.98751C5.14793 4.8271 5.3521 4.74689 5.60001 4.74689C5.84793 4.74689 6.0521 4.8271 6.21251 4.98751L10.5 9.27501L14.7875 4.98751C14.9479 4.8271 15.1521 4.74689 15.4 4.74689C15.6479 4.74689 15.8521 4.8271 16.0125 4.98751C16.1729 5.14793 16.2531 5.3521 16.2531 5.60001C16.2531 5.84793 16.1729 6.0521 16.0125 6.21251L11.725 10.5L16.0125 14.7875C16.1729 14.9479 16.2531 15.1521 16.2531 15.4C16.2531 15.6479 16.1729 15.8521 16.0125 16.0125C15.8521 16.1729 15.6479 16.2531 15.4 16.2531C15.1521 16.2531 14.9479 16.1729 14.7875 16.0125L10.5 11.725Z" fill="#1D1D1F"/>
</svg>
