<svg width="34" height="35" viewBox="0 0 34 35" fill="none" xmlns="http://www.w3.org/2000/svg">
<path d="M13.1253 20.5002L17.0053 16.6202L20.8853 20.5002C20.9778 20.5928 21.0878 20.6663 21.2087 20.7164C21.3297 20.7665 21.4593 20.7923 21.5903 20.7923C21.7212 20.7923 21.8508 20.7665 21.9718 20.7164C22.0928 20.6663 22.2027 20.5928 22.2953 20.5002C22.3878 20.4077 22.4613 20.2977 22.5114 20.1768C22.5615 20.0558 22.5873 19.9262 22.5873 19.7952C22.5873 19.6643 22.5615 19.5347 22.5114 19.4137C22.4613 19.2927 22.3878 19.1828 22.2953 19.0902L17.7053 14.5002C17.3153 14.1102 16.6853 14.1102 16.2953 14.5002L11.7053 19.0902C11.6126 19.1828 11.539 19.2926 11.4888 19.4136C11.4386 19.5346 11.4128 19.6643 11.4128 19.7952C11.4128 19.9262 11.4386 20.0559 11.4888 20.1769C11.539 20.2978 11.6126 20.4077 11.7053 20.5002C12.0953 20.8802 12.7353 20.8902 13.1253 20.5002Z" fill="#F73558"/>
</svg>
