<svg width="12" height="7" viewBox="0 0 12 7" fill="none" xmlns="http://www.w3.org/2000/svg">
<path d="M2.12526 6.50025L6.00526 2.62025L9.88526 6.50025C9.97784 6.59283 10.0878 6.66627 10.2087 6.71637C10.3297 6.76648 10.4593 6.79227 10.5903 6.79227C10.7212 6.79227 10.8508 6.76648 10.9718 6.71637C11.0928 6.66627 11.2027 6.59283 11.2953 6.50025C11.3878 6.40766 11.4613 6.29775 11.5114 6.17679C11.5615 6.05583 11.5873 5.92618 11.5873 5.79525C11.5873 5.66432 11.5615 5.53467 11.5114 5.4137C11.4613 5.29274 11.3878 5.18283 11.2953 5.09025L6.70526 0.500246C6.31526 0.110246 5.68526 0.110246 5.29526 0.500246L0.70526 5.09025C0.612556 5.18276 0.539009 5.29265 0.488828 5.41362C0.438646 5.5346 0.412816 5.66428 0.412816 5.79525C0.412816 5.92621 0.438646 6.0559 0.488828 6.17687C0.539009 6.29784 0.612556 6.40773 0.70526 6.50025C1.09526 6.88025 1.73526 6.89025 2.12526 6.50025Z" fill="#F73558"/>
</svg>
