<svg width="19" height="19" viewBox="0 0 19 19" fill="none" xmlns="http://www.w3.org/2000/svg">
<path d="M17.0688 7.20312L15.8438 5.97812L16.5001 5.29999L13.7001 2.49999L13.022 3.15624L11.7751 1.90937L12.4313 1.23124C12.7668 0.895826 13.1824 0.731618 13.6782 0.738618C14.1741 0.745618 14.5897 0.917118 14.9251 1.25312L17.747 4.07499C18.0824 4.41041 18.2501 4.82224 18.2501 5.31049C18.2501 5.79874 18.0824 6.21087 17.747 6.54687L17.0688 7.20312ZM6.56885 17.725C6.23343 18.0604 5.8216 18.2281 5.33335 18.2281C4.8451 18.2281 4.43297 18.0604 4.09697 17.725L1.2751 14.9031C0.939681 14.5677 0.771973 14.1559 0.771973 13.6676C0.771973 13.1794 0.939681 12.7672 1.2751 12.4312L1.93135 11.775L3.17822 13.0219L2.5001 13.6781L5.32197 16.5L5.97822 15.8219L7.2251 17.0687L6.56885 17.725ZM15.2532 10.375L16.5001 9.12812L9.87197 2.49999L8.6251 3.74687L15.2532 10.375ZM9.12822 16.5L10.3751 15.2312L3.76885 8.62499L2.5001 9.87187L9.12822 16.5ZM8.99697 11.3812L11.4032 8.99687L10.0032 7.59687L7.61885 10.0031L8.99697 11.3812ZM10.3751 17.725C10.0397 18.0604 9.62405 18.2281 9.12822 18.2281C8.63239 18.2281 8.21676 18.0604 7.88135 17.725L1.2751 11.1187C0.939681 10.7833 0.771973 10.3677 0.771973 9.87187C0.771973 9.37603 0.939681 8.96041 1.2751 8.62499L2.52197 7.37812C2.85739 7.0427 3.26922 6.87499 3.75747 6.87499C4.24572 6.87499 4.65785 7.0427 4.99385 7.37812L6.37197 8.75624L8.77822 6.34999L7.4001 4.99374C7.06468 4.65833 6.89697 4.2427 6.89697 3.74687C6.89697 3.25103 7.06468 2.83541 7.4001 2.49999L8.64697 1.25312C8.98239 0.917701 9.39451 0.749993 9.88335 0.749993C10.3722 0.749993 10.784 0.917701 11.1188 1.25312L17.747 7.88124C18.0824 8.21666 18.2501 8.62849 18.2501 9.11674C18.2501 9.60499 18.0824 10.0171 17.747 10.3531L16.5001 11.6C16.1647 11.9354 15.7491 12.1031 15.2532 12.1031C14.7574 12.1031 14.3418 11.9354 14.0063 11.6L12.6501 10.2219L10.2438 12.6281L11.622 14.0062C11.9574 14.3417 12.1251 14.7538 12.1251 15.2426C12.1251 15.7314 11.9574 16.1433 11.622 16.4781L10.3751 17.725Z" fill="#F73558"/>
</svg>
