<svg width="13" height="13" viewBox="0 0 13 13" fill="none" xmlns="http://www.w3.org/2000/svg">
<path d="M3.375 3.375H2.75C2.41848 3.375 2.10054 3.5067 1.86612 3.74112C1.6317 3.97554 1.5 4.29348 1.5 4.625V10.25C1.5 10.5815 1.6317 10.8995 1.86612 11.1339C2.10054 11.3683 2.41848 11.5 2.75 11.5H8.375C8.70652 11.5 9.02446 11.3683 9.25888 11.1339C9.4933 10.8995 9.625 10.5815 9.625 10.25V9.625" stroke="#F73558" stroke-width="1.2" stroke-linecap="round" stroke-linejoin="round"/>
<path d="M9 2.12501L10.875 4.00001M11.7406 3.11563C11.9868 2.86948 12.1251 2.53562 12.1251 2.18751C12.1251 1.83939 11.9868 1.50553 11.7406 1.25938C11.4945 1.01323 11.1606 0.874939 10.8125 0.874939C10.4644 0.874939 10.1305 1.01323 9.88438 1.25938L4.625 6.50001V8.37501H6.5L11.7406 3.11563Z" stroke="#F73558" stroke-width="1.2" stroke-linecap="round" stroke-linejoin="round"/>
</svg>
