<svg width="21" height="21" viewBox="0 0 21 21" fill="none" xmlns="http://www.w3.org/2000/svg">
<path d="M4.375 18.375C3.89375 18.375 3.48192 18.2038 3.1395 17.8614C2.79708 17.519 2.62558 17.1068 2.625 16.625V4.37499C2.625 3.89374 2.7965 3.48191 3.1395 3.13949C3.4825 2.79708 3.89433 2.62558 4.375 2.62499H10.0844C10.376 2.62499 10.5948 2.71629 10.7406 2.89887C10.8865 3.08145 10.9594 3.28183 10.9594 3.49999C10.9594 3.71816 10.883 3.91883 10.7301 4.10199C10.5773 4.28516 10.3547 4.37616 10.0625 4.37499H4.375V16.625H16.625V10.9156C16.625 10.624 16.7163 10.4052 16.8989 10.2594C17.0815 10.1135 17.2818 10.0406 17.5 10.0406C17.7182 10.0406 17.9188 10.1135 18.102 10.2594C18.2852 10.4052 18.3762 10.624 18.375 10.9156V16.625C18.375 17.1062 18.2038 17.5184 17.8614 17.8614C17.519 18.2044 17.1068 18.3756 16.625 18.375H4.375ZM7.875 12.25V10.1281C7.875 9.89479 7.91875 9.67224 8.00625 9.46049C8.09375 9.24874 8.21771 9.06295 8.37812 8.90312L15.9031 1.37812C16.0781 1.20312 16.275 1.07187 16.4938 0.984369C16.7125 0.896869 16.9313 0.853119 17.15 0.853119C17.3833 0.853119 17.6059 0.896869 17.8176 0.984369C18.0294 1.07187 18.2225 1.20312 18.3969 1.37812L19.6219 2.62499C19.7823 2.79999 19.9063 2.99337 19.9938 3.20512C20.0813 3.41687 20.125 3.63183 20.125 3.84999C20.125 4.06816 20.085 4.28341 20.0051 4.49574C19.9252 4.70808 19.7975 4.90116 19.6219 5.07499L12.0969 12.6C11.9365 12.7604 11.7507 12.8882 11.5395 12.9832C11.3283 13.0783 11.1058 13.1256 10.8719 13.125H8.75C8.50208 13.125 8.29442 13.041 8.127 12.873C7.95958 12.705 7.87558 12.4973 7.875 12.25ZM9.625 11.375H10.85L15.925 6.29999L15.3125 5.68749L14.6781 5.07499L9.625 10.1281V11.375Z" fill="#1D1D1F"/>
</svg>
