<svg width="48" height="48" viewBox="0 0 48 48" fill="none" xmlns="http://www.w3.org/2000/svg">
<path d="M0 21.3333H5.33333V26.6667H0V21.3333ZM42.6667 21.3333H48V26.6667H42.6667V21.3333ZM21.3333 0H26.6667V5.33333H21.3333V0ZM21.3333 42.6667H26.6667V48H21.3333V42.6667ZM10.6667 42.6667H16V48H10.6667V42.6667ZM0 32H5.33333V37.3333H0V32ZM0 42.6667H5.33333V48H0V42.6667ZM0 0H5.33333V5.33333H0V0ZM0 10.6667H5.33333V16H0V10.6667ZM10.6667 0H16V5.33333H10.6667V0ZM32 0H37.3333V5.33333H32V0ZM42.6667 0H48V5.33333H42.6667V0ZM42.6667 10.6667H48V16H42.6667V10.6667ZM32 42.6667H37.3333V48H32V42.6667ZM42.6667 42.6667H48V48H42.6667V42.6667ZM42.6667 32H48V37.3333H42.6667V32Z" fill="#BABABA"/>
</svg>
