<svg width="34" height="35" viewBox="0 0 34 35" fill="none" xmlns="http://www.w3.org/2000/svg">
<path d="M20.8747 14.4998L16.9947 18.3798L13.1147 14.4998C13.0222 14.4072 12.9122 14.3337 12.7913 14.2836C12.6703 14.2335 12.5407 14.2077 12.4097 14.2077C12.2788 14.2077 12.1492 14.2335 12.0282 14.2836C11.9072 14.3337 11.7973 14.4072 11.7047 14.4998C11.6122 14.5923 11.5387 14.7023 11.4886 14.8232C11.4385 14.9442 11.4127 15.0738 11.4127 15.2048C11.4127 15.3357 11.4385 15.4653 11.4886 15.5863C11.5387 15.7073 11.6122 15.8172 11.7047 15.9098L16.2947 20.4998C16.6847 20.8898 17.3147 20.8898 17.7047 20.4998L22.2947 15.9098C22.3874 15.8172 22.461 15.7074 22.5112 15.5864C22.5614 15.4654 22.5872 15.3357 22.5872 15.2048C22.5872 15.0738 22.5614 14.9441 22.5112 14.8231C22.461 14.7022 22.3874 14.5923 22.2947 14.4998C21.9047 14.1198 21.2647 14.1098 20.8747 14.4998Z" fill="#F73558"/>
</svg>
