<svg width="12" height="7" viewBox="0 0 12 7" fill="none" xmlns="http://www.w3.org/2000/svg">
<path d="M9.87474 0.499762L5.99474 4.37976L2.11474 0.499762C2.02216 0.40718 1.91225 0.33374 1.79128 0.283635C1.67032 0.23353 1.54067 0.207741 1.40974 0.207741C1.27881 0.207741 1.14916 0.23353 1.0282 0.283635C0.907233 0.33374 0.797322 0.40718 0.704741 0.499762C0.612159 0.592344 0.538719 0.702254 0.488614 0.823218C0.438509 0.944182 0.41272 1.07383 0.41272 1.20476C0.41272 1.33569 0.438509 1.46534 0.488614 1.5863C0.538719 1.70727 0.612159 1.81718 0.704741 1.90976L5.29474 6.49976C5.68474 6.88976 6.31474 6.88976 6.70474 6.49976L11.2947 1.90976C11.3874 1.81725 11.461 1.70736 11.5112 1.58639C11.5614 1.46541 11.5872 1.33573 11.5872 1.20476C11.5872 1.07379 11.5614 0.944111 11.5112 0.823137C11.461 0.702164 11.3874 0.592275 11.2947 0.499762C10.9047 0.119762 10.2647 0.109762 9.87474 0.499762Z" fill="#F73558"/>
</svg>
