<svg width="15" height="10" viewBox="0 0 15 10" fill="none" xmlns="http://www.w3.org/2000/svg">
<path d="M7.50001 8C8.28126 8 8.94543 7.72667 9.49251 7.18C10.0396 6.63333 10.3129 5.96917 10.3125 5.1875C10.3121 4.40583 10.0388 3.74187 9.49251 3.19562C8.94626 2.64937 8.28209 2.37583 7.50001 2.375C6.71793 2.37417 6.05397 2.64771 5.50813 3.19562C4.9623 3.74354 4.68876 4.4075 4.68751 5.1875C4.68626 5.9675 4.9598 6.63167 5.50813 7.18C6.05647 7.72833 6.72043 8.00167 7.50001 8ZM7.50001 6.875C7.03126 6.875 6.63293 6.71083 6.30501 6.3825C5.97709 6.05417 5.81293 5.65583 5.81251 5.1875C5.81209 4.71917 5.97626 4.32083 6.30501 3.9925C6.63376 3.66417 7.03209 3.5 7.50001 3.5C7.96793 3.5 8.36647 3.66417 8.69563 3.9925C9.0248 4.32083 9.18876 4.71917 9.18751 5.1875C9.18626 5.65583 9.0223 6.05438 8.69563 6.38313C8.36897 6.71188 7.97043 6.87583 7.50001 6.875ZM7.50001 9.875C6.10418 9.875 4.83063 9.5 3.67938 8.75C2.52813 8 1.61938 7.01042 0.953135 5.78125C0.901051 5.6875 0.862093 5.59125 0.83626 5.4925C0.810426 5.39375 0.797301 5.29208 0.796885 5.1875C0.796468 5.08292 0.809593 4.98125 0.83626 4.8825C0.862926 4.78375 0.901885 4.6875 0.953135 4.59375C1.6198 3.36458 2.52876 2.375 3.68001 1.625C4.83126 0.875 6.10459 0.5 7.50001 0.5C8.89543 0.5 10.169 0.875 11.3206 1.625C12.4723 2.375 13.3811 3.36458 14.0469 4.59375C14.099 4.6875 14.1381 4.78396 14.1644 4.88312C14.1906 4.98229 14.2036 5.08375 14.2031 5.1875C14.2027 5.29125 14.1898 5.39292 14.1644 5.4925C14.139 5.59208 14.0998 5.68833 14.0469 5.78125C13.3802 7.01042 12.4715 8 11.3206 8.75C10.1698 9.5 8.89626 9.875 7.50001 9.875ZM7.50001 8.625C8.67709 8.625 9.75793 8.31521 10.7425 7.69562C11.7271 7.07604 12.4796 6.24 13 5.1875C12.4792 4.13542 11.7265 3.29958 10.7419 2.68C9.7573 2.06042 8.67668 1.75042 7.50001 1.75C6.32334 1.74958 5.24272 2.05958 4.25813 2.68C3.27355 3.30042 2.52084 4.13625 2.00001 5.1875C2.52084 6.23958 3.27355 7.07562 4.25813 7.69562C5.24272 8.31562 6.32334 8.62542 7.50001 8.625Z" fill="#6A6A6A"/>
</svg>
