<svg width="15" height="12" viewBox="0 0 15 12" fill="none" xmlns="http://www.w3.org/2000/svg">
<path d="M9.48439 3.20313C9.78647 3.50521 10.0079 3.84896 10.1488 4.23438C10.2896 4.61979 10.339 5.01563 10.2969 5.42188C10.2969 5.57813 10.2396 5.71104 10.125 5.82063C10.0104 5.93021 9.87501 5.98479 9.71876 5.98438C9.56251 5.98396 9.4296 5.92938 9.32001 5.82063C9.21043 5.71188 9.15584 5.57896 9.15626 5.42188C9.20834 5.15104 9.19272 4.89063 9.10939 4.64063C9.02605 4.39063 8.89585 4.17709 8.71876 4C8.54168 3.82292 8.32814 3.6875 8.07814 3.59375C7.82814 3.5 7.56251 3.47917 7.28126 3.53125C7.12501 3.53125 6.9921 3.47396 6.88251 3.35938C6.77293 3.24479 6.71835 3.10938 6.71876 2.95313C6.71918 2.79688 6.77397 2.66417 6.88314 2.555C6.9923 2.44584 7.12501 2.39104 7.28126 2.39063C7.6771 2.34896 8.06772 2.39854 8.45314 2.53938C8.83855 2.68021 9.1823 2.90146 9.48439 3.20313ZM7.50001 1.75C7.3021 1.75 7.10939 1.75771 6.92189 1.77313C6.73439 1.78854 6.54689 1.81729 6.35939 1.85938C6.1823 1.89063 6.02334 1.86459 5.88251 1.78125C5.74168 1.69792 5.64543 1.57292 5.59376 1.40625C5.5421 1.23959 5.56043 1.07813 5.64876 0.921877C5.7371 0.765627 5.8646 0.671877 6.03126 0.640627C6.27085 0.588544 6.51314 0.552086 6.75814 0.531252C7.00314 0.510419 7.25043 0.500002 7.50001 0.500002C8.9271 0.500002 10.2319 0.875002 11.4144 1.625C12.5969 2.375 13.5004 3.38542 14.125 4.65625C14.1667 4.73959 14.1979 4.82563 14.2188 4.91438C14.2396 5.00313 14.25 5.09417 14.25 5.1875C14.25 5.28084 14.2421 5.37209 14.2263 5.46125C14.2104 5.55042 14.1819 5.63625 14.1406 5.71875C13.9531 6.13542 13.7215 6.52604 13.4456 6.89063C13.1698 7.25521 12.865 7.58854 12.5313 7.89063C12.4063 8.00521 12.2604 8.05209 12.0938 8.03125C11.9271 8.01042 11.7917 7.92709 11.6875 7.78125C11.5833 7.63542 11.5392 7.47646 11.555 7.30438C11.5708 7.13229 11.6411 6.98917 11.7656 6.875C12.0156 6.63542 12.2448 6.375 12.4531 6.09375C12.6615 5.8125 12.8438 5.51042 13 5.1875C12.4792 4.13542 11.7265 3.29959 10.7419 2.68C9.7573 2.06042 8.67668 1.75042 7.50001 1.75ZM7.50001 9.875C6.10418 9.875 4.82814 9.4975 3.67189 8.7425C2.51564 7.9875 1.60418 6.99521 0.937512 5.76563C0.885429 5.68229 0.84647 5.59125 0.820637 5.4925C0.794804 5.39375 0.781679 5.29209 0.781262 5.1875C0.780845 5.08292 0.791262 4.98396 0.812512 4.89063C0.833762 4.79729 0.87022 4.70354 0.921887 4.60938C1.13022 4.19271 1.37251 3.79438 1.64876 3.41438C1.92501 3.03438 2.24001 2.68792 2.59376 2.375L1.29689 1.0625C1.1823 0.937502 1.12772 0.789169 1.13314 0.617502C1.13855 0.445836 1.19835 0.302502 1.31251 0.187502C1.42668 0.0725023 1.57251 0.0152106 1.75001 0.0156273C1.92751 0.0160439 2.07335 0.0733356 2.18751 0.187502L12.8125 10.8125C12.9271 10.9271 12.9871 11.0704 12.9925 11.2425C12.9979 11.4146 12.9379 11.5629 12.8125 11.6875C12.6979 11.8021 12.5521 11.8594 12.375 11.8594C12.1979 11.8594 12.0521 11.8021 11.9375 11.6875L9.75001 9.53125C9.38543 9.64584 9.01564 9.73188 8.64064 9.78938C8.26564 9.84688 7.88543 9.87542 7.50001 9.875ZM3.46876 3.25C3.16668 3.52084 2.89064 3.81771 2.64064 4.14063C2.39064 4.46354 2.1771 4.8125 2.00001 5.1875C2.52085 6.23959 3.27355 7.07563 4.25814 7.69563C5.24272 8.31563 6.32335 8.62542 7.50001 8.625C7.70835 8.625 7.91147 8.61209 8.10939 8.58625C8.3073 8.56042 8.51043 8.53167 8.71876 8.5L8.15626 7.90625C8.04168 7.9375 7.9323 7.96104 7.82814 7.97688C7.72397 7.99271 7.6146 8.00042 7.50001 8C6.71876 8 6.0546 7.72667 5.50751 7.18C4.96043 6.63334 4.6871 5.96917 4.68751 5.1875C4.68751 5.07292 4.69543 4.96354 4.71126 4.85938C4.7271 4.75521 4.75043 4.64584 4.78126 4.53125L3.46876 3.25Z" fill="#6A6A6A"/>
</svg>
