<svg width="34" height="35" viewBox="0 0 34 35" fill="none" xmlns="http://www.w3.org/2000/svg">
<path d="M13.9998 13.6252L17.8798 17.5052L13.9998 21.3852C13.9072 21.4778 13.8338 21.5877 13.7837 21.7087C13.7336 21.8296 13.7078 21.9593 13.7078 22.0902C13.7078 22.2211 13.7336 22.3508 13.7837 22.4718C13.8338 22.5927 13.9072 22.7026 13.9998 22.7952C14.0924 22.8878 14.2023 22.9612 14.3232 23.0113C14.4442 23.0614 14.5739 23.0872 14.7048 23.0872C14.8357 23.0872 14.9654 23.0614 15.0863 23.0113C15.2073 22.9612 15.3172 22.8878 15.4098 22.7952L19.9998 18.2052C20.3898 17.8152 20.3898 17.1852 19.9998 16.7952L15.4098 12.2052C15.3173 12.1125 15.2074 12.039 15.0864 11.9888C14.9654 11.9386 14.8358 11.9128 14.7048 11.9128C14.5738 11.9128 14.4441 11.9386 14.3232 11.9888C14.2022 12.039 14.0923 12.1125 13.9998 12.2052C13.6198 12.5952 13.6098 13.2352 13.9998 13.6252Z" fill="#F73558"/>
</svg>
