<svg width="15" height="15" viewBox="0 0 15 15" fill="none" xmlns="http://www.w3.org/2000/svg">
<path d="M7.875 7.5L5.4375 5.0625C5.32292 4.94792 5.26562 4.80208 5.26562 4.625C5.26562 4.44792 5.32292 4.30208 5.4375 4.1875C5.55208 4.07292 5.69792 4.01562 5.875 4.01562C6.05208 4.01562 6.19792 4.07292 6.3125 4.1875L9.1875 7.0625C9.25 7.125 9.29437 7.19271 9.32062 7.26562C9.34687 7.33854 9.35979 7.41667 9.35938 7.5C9.35896 7.58333 9.34604 7.66146 9.32062 7.73438C9.29521 7.80729 9.25083 7.875 9.1875 7.9375L6.3125 10.8125C6.19792 10.9271 6.05208 10.9844 5.875 10.9844C5.69792 10.9844 5.55208 10.9271 5.4375 10.8125C5.32292 10.6979 5.26562 10.5521 5.26562 10.375C5.26562 10.1979 5.32292 10.0521 5.4375 9.9375L7.875 7.5Z" fill="#F73558"/>
</svg>
