<svg width="8" height="13" viewBox="0 0 8 13" fill="none" xmlns="http://www.w3.org/2000/svg">
<path d="M0.999784 2.62521L4.87978 6.50521L0.999784 10.3852C0.907203 10.4778 0.833763 10.5877 0.783658 10.7087C0.733553 10.8296 0.707764 10.9593 0.707764 11.0902C0.707764 11.2211 0.733553 11.3508 0.783658 11.4718C0.833763 11.5927 0.907203 11.7026 0.999784 11.7952C1.09237 11.8878 1.20228 11.9612 1.32324 12.0113C1.44421 12.0614 1.57385 12.0872 1.70478 12.0872C1.83572 12.0872 1.96536 12.0614 2.08633 12.0113C2.20729 11.9612 2.3172 11.8878 2.40978 11.7952L6.99978 7.20521C7.38978 6.81521 7.38978 6.18521 6.99978 5.79521L2.40978 1.20521C2.31727 1.11251 2.20738 1.03896 2.08641 0.988782C1.96544 0.938601 1.83575 0.91277 1.70478 0.91277C1.57382 0.91277 1.44413 0.938601 1.32316 0.988782C1.20219 1.03896 1.0923 1.11251 0.999784 1.20521C0.619784 1.59521 0.609784 2.23521 0.999784 2.62521Z" fill="#F73558"/>
</svg>
