<svg width="34" height="34" viewBox="0 0 34 34" fill="none" xmlns="http://www.w3.org/2000/svg">
<path d="M17 34C14.6483 34 12.4383 33.5535 10.37 32.6604C8.30167 31.7673 6.5025 30.5564 4.9725 29.0275C3.4425 27.4986 2.23153 25.6995 1.3396 23.63C0.447669 21.5605 0.00113548 19.3505 2.1519e-06 17C-0.00113118 14.6495 0.445402 12.4395 1.3396 10.37C2.2338 8.30053 3.44477 6.50137 4.9725 4.9725C6.50023 3.44363 8.2994 2.23267 10.37 1.3396C12.4406 0.446533 14.6506 0 17 0C19.3494 0 21.5594 0.446533 23.63 1.3396C25.7006 2.23267 27.4998 3.44363 29.0275 4.9725C30.5552 6.50137 31.7668 8.30053 32.6621 10.37C33.5574 12.4395 34.0034 14.6495 34 17C33.9966 19.3505 33.5501 21.5605 32.6604 23.63C31.7707 25.6995 30.5598 27.4986 29.0275 29.0275C27.4952 30.5564 25.6961 31.7679 23.63 32.6621C21.5639 33.5563 19.3539 34.0023 17 34ZM17.34 18.7L15.81 20.23C15.4983 20.5417 15.3425 20.9383 15.3425 21.42C15.3425 21.9017 15.4983 22.2983 15.81 22.61C16.1217 22.9217 16.5183 23.0775 17 23.0775C17.4817 23.0775 17.8783 22.9217 18.19 22.61L22.61 18.19C22.95 17.85 23.12 17.4533 23.12 17C23.12 16.5467 22.95 16.15 22.61 15.81L18.19 11.39C17.8783 11.0783 17.4817 10.9225 17 10.9225C16.5183 10.9225 16.1217 11.0783 15.81 11.39C15.4983 11.7017 15.3425 12.0983 15.3425 12.58C15.3425 13.0617 15.4983 13.4583 15.81 13.77L17.34 15.3H11.9C11.4183 15.3 11.0149 15.4632 10.6896 15.7896C10.3643 16.116 10.2011 16.5195 10.2 17C10.1989 17.4805 10.3621 17.8846 10.6896 18.2121C11.0171 18.5396 11.4206 18.7023 11.9 18.7H17.34Z" fill="#F73558"/>
</svg>
