<svg width="19" height="19" viewBox="0 0 19 19" fill="none" xmlns="http://www.w3.org/2000/svg">
<path d="M6.875 6.87501V16.5H13V13.875C13 13.6271 13.084 13.4194 13.252 13.252C13.42 13.0846 13.6277 13.0006 13.875 13H16.5V6.87501H6.875ZM5.125 16.5V6.85314C5.125 6.37189 5.3 5.96355 5.65 5.62814C6 5.29272 6.41563 5.12501 6.89688 5.12501H16.5C16.9813 5.12501 17.3934 5.29622 17.7364 5.63864C18.0794 5.98105 18.2506 6.39318 18.25 6.87501V13.1531C18.25 13.3865 18.2063 13.609 18.1188 13.8208C18.0313 14.0325 17.9073 14.2183 17.7469 14.3781L14.3781 17.7469C14.2177 17.9073 14.0316 18.0313 13.8199 18.1188C13.6081 18.2063 13.3859 18.25 13.1531 18.25H6.875C6.39375 18.25 5.98192 18.0788 5.6395 17.7364C5.29708 17.394 5.12558 16.9818 5.125 16.5ZM0.771876 4.46876C0.684376 3.98751 0.779167 3.5538 1.05625 3.16764C1.33333 2.78147 1.7125 2.54434 2.19375 2.45626L11.6875 0.771886C12.1542 0.684386 12.5771 0.782969 12.9563 1.06764C13.3354 1.3523 13.5833 1.72768 13.7 2.19376L13.8531 2.87189C13.926 3.16355 13.8823 3.39689 13.7219 3.57189C13.5615 3.74689 13.3719 3.84897 13.1531 3.87814C12.9344 3.9073 12.7267 3.86734 12.5301 3.75826C12.3335 3.64918 12.1985 3.44851 12.125 3.15626L11.9719 2.50001L2.5 4.18439L3.8125 11.7094C3.85625 11.9573 3.8125 12.1796 3.68125 12.3761C3.55 12.5727 3.36042 12.6932 3.1125 12.7375C2.86458 12.7818 2.64583 12.7346 2.45625 12.5958C2.26667 12.4569 2.15 12.2636 2.10625 12.0156L0.771876 4.46876Z" fill="#F73558"/>
</svg>
