<svg width="21" height="21" viewBox="0 0 21 21" fill="none" xmlns="http://www.w3.org/2000/svg">
<path d="M7.875 7.87501V17.5H14V14.875C14 14.6271 14.084 14.4194 14.252 14.252C14.42 14.0846 14.6277 14.0006 14.875 14H17.5V7.87501H7.875ZM6.125 17.5V7.85314C6.125 7.37189 6.3 6.96355 6.65 6.62814C7 6.29272 7.41563 6.12501 7.89688 6.12501H17.5C17.9813 6.12501 18.3934 6.29622 18.7364 6.63864C19.0794 6.98105 19.2506 7.39318 19.25 7.87501V14.1531C19.25 14.3865 19.2063 14.609 19.1188 14.8208C19.0313 15.0325 18.9073 15.2183 18.7469 15.3781L15.3781 18.7469C15.2177 18.9073 15.0316 19.0313 14.8199 19.1188C14.6081 19.2063 14.3859 19.25 14.1531 19.25H7.875C7.39375 19.25 6.98192 19.0788 6.6395 18.7364C6.29708 18.394 6.12558 17.9818 6.125 17.5ZM1.77188 5.46876C1.68438 4.98751 1.77917 4.5538 2.05625 4.16764C2.33333 3.78147 2.7125 3.54434 3.19375 3.45626L12.6875 1.77189C13.1542 1.68439 13.5771 1.78297 13.9563 2.06764C14.3354 2.3523 14.5833 2.72768 14.7 3.19376L14.8531 3.87189C14.926 4.16355 14.8823 4.39689 14.7219 4.57189C14.5615 4.74689 14.3719 4.84897 14.1531 4.87814C13.9344 4.9073 13.7267 4.86734 13.5301 4.75826C13.3335 4.64918 13.1985 4.44851 13.125 4.15626L12.9719 3.50001L3.5 5.18439L4.8125 12.7094C4.85625 12.9573 4.8125 13.1796 4.68125 13.3761C4.55 13.5727 4.36042 13.6932 4.1125 13.7375C3.86458 13.7818 3.64583 13.7346 3.45625 13.5958C3.26667 13.4569 3.15 13.2636 3.10625 13.0156L1.77188 5.46876Z" fill="#F73558"/>
</svg>
