<svg width="13" height="14" viewBox="0 0 13 14" fill="none" xmlns="http://www.w3.org/2000/svg">
<path d="M5.25 1.875C5.07292 1.875 4.92458 1.815 4.805 1.695C4.68542 1.575 4.62542 1.42667 4.625 1.25C4.62458 1.07333 4.68458 0.925 4.805 0.805C4.92542 0.685 5.07375 0.625 5.25 0.625H7.75C7.92708 0.625 8.07563 0.685 8.19563 0.805C8.31563 0.925 8.37542 1.07333 8.375 1.25C8.37458 1.42667 8.31458 1.57521 8.195 1.69562C8.07542 1.81604 7.92708 1.87583 7.75 1.875H5.25ZM6.5 8.75C6.67708 8.75 6.82563 8.69 6.94563 8.57C7.06563 8.45 7.12542 8.30167 7.125 8.125V5.625C7.125 5.44792 7.065 5.29958 6.945 5.18C6.825 5.06042 6.67667 5.00042 6.5 5C6.32333 4.99958 6.175 5.05958 6.055 5.18C5.935 5.30042 5.875 5.44875 5.875 5.625V8.125C5.875 8.30208 5.935 8.45062 6.055 8.57062C6.175 8.69062 6.32333 8.75042 6.5 8.75ZM6.5 13.75C5.72917 13.75 5.0025 13.6017 4.32 13.305C3.6375 13.0083 3.04125 12.6046 2.53125 12.0937C2.02125 11.5829 1.61771 10.9865 1.32063 10.3044C1.02354 9.62229 0.875 8.89583 0.875 8.125C0.875 7.35417 1.02354 6.6275 1.32063 5.945C1.61771 5.2625 2.02125 4.66625 2.53125 4.15625C3.04125 3.64625 3.63771 3.24271 4.32062 2.94562C5.00354 2.64854 5.73 2.5 6.5 2.5C7.14583 2.5 7.76563 2.60417 8.35938 2.8125C8.95312 3.02083 9.51042 3.32292 10.0312 3.71875L10.4688 3.28125C10.5833 3.16667 10.7292 3.10937 10.9062 3.10937C11.0833 3.10937 11.2292 3.16667 11.3438 3.28125C11.4583 3.39583 11.5156 3.54167 11.5156 3.71875C11.5156 3.89583 11.4583 4.04167 11.3438 4.15625L10.9062 4.59375C11.3021 5.11458 11.6042 5.67187 11.8125 6.26562C12.0208 6.85937 12.125 7.47917 12.125 8.125C12.125 8.89583 11.9765 9.6225 11.6794 10.305C11.3823 10.9875 10.9788 11.5837 10.4688 12.0937C9.95875 12.6037 9.36229 13.0075 8.67938 13.305C7.99646 13.6025 7.27 13.7508 6.5 13.75ZM6.5 12.5C7.70833 12.5 8.73958 12.0729 9.59375 11.2187C10.4479 10.3646 10.875 9.33333 10.875 8.125C10.875 6.91667 10.4479 5.88542 9.59375 5.03125C8.73958 4.17708 7.70833 3.75 6.5 3.75C5.29167 3.75 4.26042 4.17708 3.40625 5.03125C2.55208 5.88542 2.125 6.91667 2.125 8.125C2.125 9.33333 2.55208 10.3646 3.40625 11.2187C4.26042 12.0729 5.29167 12.5 6.5 12.5Z" fill="#1D1D1F"/>
</svg>
