<svg width="40" height="40" viewBox="0 0 40 40" fill="none" xmlns="http://www.w3.org/2000/svg">
<path d="M16.6667 4.99999C16.1944 4.99999 15.7989 4.83999 15.48 4.51999C15.1611 4.19999 15.0011 3.80443 15 3.33332C14.9989 2.86221 15.1589 2.46666 15.48 2.14666C15.8011 1.82666 16.1967 1.66666 16.6667 1.66666H23.3333C23.8056 1.66666 24.2017 1.82666 24.5217 2.14666C24.8417 2.46666 25.0011 2.86221 25 3.33332C24.9989 3.80443 24.8389 4.20055 24.52 4.52166C24.2011 4.84277 23.8056 5.00221 23.3333 4.99999H16.6667ZM20 23.3333C20.4722 23.3333 20.8683 23.1733 21.1883 22.8533C21.5083 22.5333 21.6678 22.1378 21.6667 21.6667V15C21.6667 14.5278 21.5067 14.1322 21.1867 13.8133C20.8667 13.4944 20.4711 13.3344 20 13.3333C19.5289 13.3322 19.1333 13.4922 18.8133 13.8133C18.4933 14.1344 18.3333 14.53 18.3333 15V21.6667C18.3333 22.1389 18.4933 22.535 18.8133 22.855C19.1333 23.175 19.5289 23.3344 20 23.3333ZM20 36.6667C17.9444 36.6667 16.0067 36.2711 14.1867 35.48C12.3667 34.6889 10.7767 33.6122 9.41667 32.25C8.05667 30.8878 6.98056 29.2972 6.18833 27.4783C5.39611 25.6594 5 23.7222 5 21.6667C5 19.6111 5.39611 17.6733 6.18833 15.8533C6.98056 14.0333 8.05667 12.4433 9.41667 11.0833C10.7767 9.72332 12.3672 8.64721 14.1883 7.85499C16.0094 7.06277 17.9467 6.66666 20 6.66666C21.7222 6.66666 23.375 6.94443 24.9583 7.49999C26.5417 8.05554 28.0278 8.8611 29.4167 9.91666L30.5833 8.74999C30.8889 8.44443 31.2778 8.29166 31.75 8.29166C32.2222 8.29166 32.6111 8.44443 32.9167 8.74999C33.2222 9.05554 33.375 9.44443 33.375 9.91666C33.375 10.3889 33.2222 10.7778 32.9167 11.0833L31.75 12.25C32.8056 13.6389 33.6111 15.125 34.1667 16.7083C34.7222 18.2917 35 19.9444 35 21.6667C35 23.7222 34.6039 25.66 33.8117 27.48C33.0194 29.3 31.9433 30.89 30.5833 32.25C29.2233 33.61 27.6328 34.6867 25.8117 35.48C23.9906 36.2733 22.0533 36.6689 20 36.6667ZM20 33.3333C23.2222 33.3333 25.9722 32.1944 28.25 29.9167C30.5278 27.6389 31.6667 24.8889 31.6667 21.6667C31.6667 18.4444 30.5278 15.6944 28.25 13.4167C25.9722 11.1389 23.2222 9.99999 20 9.99999C16.7778 9.99999 14.0278 11.1389 11.75 13.4167C9.47222 15.6944 8.33333 18.4444 8.33333 21.6667C8.33333 24.8889 9.47222 27.6389 11.75 29.9167C14.0278 32.1944 16.7778 33.3333 20 33.3333Z" fill="#F73558"/>
</svg>
