<svg width="12" height="12" viewBox="0 0 12 12" fill="none" xmlns="http://www.w3.org/2000/svg">
<path d="M4.9375 9C3.80208 9 2.84125 8.60667 2.055 7.82C1.26875 7.03333 0.875417 6.0725 0.875 4.9375C0.874584 3.8025 1.26792 2.84167 2.055 2.055C2.84208 1.26833 3.80292 0.875 4.9375 0.875C6.07208 0.875 7.03313 1.26833 7.82063 2.055C8.60813 2.84167 9.00125 3.8025 9 4.9375C9 5.39583 8.92708 5.82812 8.78125 6.23438C8.63542 6.64062 8.4375 7 8.1875 7.3125L11.6875 10.8125C11.8021 10.9271 11.8594 11.0729 11.8594 11.25C11.8594 11.4271 11.8021 11.5729 11.6875 11.6875C11.5729 11.8021 11.4271 11.8594 11.25 11.8594C11.0729 11.8594 10.9271 11.8021 10.8125 11.6875L7.3125 8.1875C7 8.4375 6.64063 8.63542 6.23438 8.78125C5.82813 8.92708 5.39583 9 4.9375 9ZM4.9375 7.75C5.71875 7.75 6.38292 7.47667 6.93 6.93C7.47708 6.38333 7.75042 5.71917 7.75 4.9375C7.74958 4.15583 7.47625 3.49188 6.93 2.94563C6.38375 2.39938 5.71958 2.12583 4.9375 2.125C4.15542 2.12417 3.49146 2.39771 2.94563 2.94563C2.39979 3.49354 2.12625 4.1575 2.125 4.9375C2.12375 5.7175 2.39729 6.38167 2.94563 6.93C3.49396 7.47833 4.15792 7.75167 4.9375 7.75Z" fill="#F73558"/>
</svg>
