<svg width="50" height="48" viewBox="0 0 50 48" fill="none" xmlns="http://www.w3.org/2000/svg">
<path d="M1.08336 35.95C0.577806 35.6 0.276806 35.124 0.180361 34.522C0.0839169 33.92 0.190472 33.346 0.500028 32.8L9.30836 18.6833C9.73614 18.0222 10.3296 17.6621 11.0887 17.603C11.8478 17.5439 12.4988 17.8068 13.0417 18.3916L18 24.1666L25.4084 12.0916C25.8361 11.3528 26.4879 10.9833 27.3637 10.9833C28.2395 10.9833 28.9099 11.3333 29.375 12.0333L31.7667 15.65C32.1945 16.3111 32.3212 16.9434 32.147 17.547C31.9728 18.1505 31.6321 18.6071 31.125 18.9166C30.6179 19.2262 30.0641 19.353 29.4637 19.297C28.8632 19.241 28.3476 18.8809 27.9167 18.2166L27.5084 17.6333L20.3334 29.3C19.9056 29.9611 19.3028 30.3305 18.525 30.4083C17.7473 30.4861 17.0861 30.2139 16.5417 29.5916L11.5834 23.8166L4.46669 35.3083C4.11669 35.8916 3.60103 36.2518 2.91969 36.3886C2.23836 36.5255 1.62625 36.3793 1.08336 35.95ZM34.5084 43.0083C31.5917 43.0083 29.1129 41.9879 27.072 39.947C25.0311 37.9061 24.0099 35.4265 24.0084 32.5083C24.0068 29.5901 25.028 27.1113 27.072 25.072C29.116 23.0326 31.5948 22.0114 34.5084 22.0083C37.4219 22.0052 39.9015 23.0264 41.947 25.072C43.9926 27.1175 45.013 29.5963 45.0084 32.5083C45.0084 33.5194 44.8722 34.5018 44.6 35.4553C44.3278 36.4089 43.9195 37.2932 43.375 38.1083L48.975 43.7083C49.4417 44.175 49.6851 44.7194 49.7054 45.3416C49.7256 45.9639 49.5016 46.5083 49.0334 46.975C48.5651 47.4416 48.0114 47.675 47.372 47.675C46.7327 47.675 46.1781 47.4416 45.7084 46.975L40.05 41.375C39.2722 41.9194 38.4074 42.3277 37.4554 42.6C36.5034 42.8722 35.521 43.0083 34.5084 43.0083ZM34.5084 38.3416C36.1417 38.3416 37.5223 37.7778 38.65 36.65C39.7778 35.5222 40.3417 34.1416 40.3417 32.5083C40.3417 30.875 39.7778 29.4944 38.65 28.3666C37.5223 27.2389 36.1417 26.675 34.5084 26.675C32.875 26.675 31.4945 27.2389 30.3667 28.3666C29.2389 29.4944 28.675 30.875 28.675 32.5083C28.675 34.1416 29.2389 35.5222 30.3667 36.65C31.4945 37.7778 32.875 38.3416 34.5084 38.3416ZM37.3667 19.0333C36.8611 18.7222 36.5111 18.275 36.3167 17.6916C36.1222 17.1083 36.2389 16.4861 36.6667 15.825L45.5334 1.76664C45.8834 1.2222 46.3889 0.872197 47.05 0.716641C47.7111 0.561086 48.3139 0.697197 48.8584 1.12497C49.3639 1.47497 49.675 1.95097 49.7917 2.55297C49.9084 3.15497 49.8111 3.72897 49.5 4.27497L40.575 18.275C40.1472 18.9361 39.6316 19.3055 39.028 19.3833C38.4245 19.4611 37.8707 19.3444 37.3667 19.0333Z" fill="#F73558"/>
</svg>
