<svg width="34" height="34" viewBox="0 0 34 34" fill="none" xmlns="http://www.w3.org/2000/svg">
<path d="M10.3333 18.6667H23.6667C24.1389 18.6667 24.535 18.5067 24.855 18.1867C25.175 17.8667 25.3344 17.4711 25.3333 17C25.3322 16.5289 25.1722 16.1333 24.8533 15.8133C24.5344 15.4933 24.1389 15.3333 23.6667 15.3333H10.3333C9.86111 15.3333 9.46556 15.4933 9.14667 15.8133C8.82778 16.1333 8.66778 16.5289 8.66667 17C8.66556 17.4711 8.82556 17.8672 9.14667 18.1883C9.46778 18.5095 9.86333 18.6689 10.3333 18.6667ZM17 33.6667C14.6944 33.6667 12.5278 33.2289 10.5 32.3533C8.47222 31.4778 6.70833 30.2906 5.20833 28.7917C3.70833 27.2928 2.52111 25.5289 1.64667 23.5C0.772222 21.4711 0.334444 19.3045 0.333333 17C0.332222 14.6956 0.77 12.5289 1.64667 10.5C2.52333 8.47112 3.71056 6.70723 5.20833 5.20834C6.70611 3.70946 8.47 2.52223 10.5 1.64668C12.53 0.771122 14.6967 0.333344 17 0.333344C19.3033 0.333344 21.47 0.771122 23.5 1.64668C25.53 2.52223 27.2939 3.70946 28.7917 5.20834C30.2894 6.70723 31.4772 8.47112 32.355 10.5C33.2328 12.5289 33.67 14.6956 33.6667 17C33.6633 19.3045 33.2256 21.4711 32.3533 23.5C31.4811 25.5289 30.2939 27.2928 28.7917 28.7917C27.2894 30.2906 25.5256 31.4783 23.5 32.355C21.4744 33.2317 19.3078 33.6689 17 33.6667ZM17 30.3333C20.7222 30.3333 23.875 29.0417 26.4583 26.4583C29.0417 23.875 30.3333 20.7222 30.3333 17C30.3333 13.2778 29.0417 10.125 26.4583 7.54168C23.875 4.95834 20.7222 3.66668 17 3.66668C13.2778 3.66668 10.125 4.95834 7.54167 7.54168C4.95833 10.125 3.66667 13.2778 3.66667 17C3.66667 20.7222 4.95833 23.875 7.54167 26.4583C10.125 29.0417 13.2778 30.3333 17 30.3333Z" fill="#F73558"/>
</svg>
