<svg width="37" height="36" viewBox="0 0 37 36" fill="none" xmlns="http://www.w3.org/2000/svg">
<path d="M12.25 24V25.875C12.25 26.2 12.3565 26.469 12.5695 26.682C12.7825 26.895 13.051 27.001 13.375 27C13.699 26.999 13.968 26.8925 14.182 26.6805C14.396 26.4685 14.502 26.2 14.5 25.875V24H16.375C16.7 24 16.969 23.8935 17.182 23.6805C17.395 23.4675 17.501 23.199 17.5 22.875C17.499 22.551 17.3925 22.2825 17.1805 22.0695C16.9685 21.8565 16.7 21.75 16.375 21.75H14.5V19.875C14.5 19.55 14.3935 19.2815 14.1805 19.0695C13.9675 18.8575 13.699 18.751 13.375 18.75C13.051 18.749 12.7825 18.8555 12.5695 19.0695C12.3565 19.2835 12.25 19.552 12.25 19.875V21.75H10.375C10.05 21.75 9.7815 21.8565 9.5695 22.0695C9.3575 22.2825 9.251 22.551 9.25 22.875C9.249 23.199 9.3555 23.468 9.5695 23.682C9.7835 23.896 10.052 24.002 10.375 24H12.25ZM20.875 25.875H26.125C26.45 25.875 26.719 25.7685 26.932 25.5555C27.145 25.3425 27.251 25.074 27.25 24.75C27.249 24.426 27.1425 24.1575 26.9305 23.9445C26.7185 23.7315 26.45 23.625 26.125 23.625H20.875C20.55 23.625 20.2815 23.7315 20.0695 23.9445C19.8575 24.1575 19.751 24.426 19.75 24.75C19.749 25.074 19.8555 25.343 20.0695 25.557C20.2835 25.771 20.552 25.877 20.875 25.875ZM20.875 22.125H26.125C26.45 22.125 26.719 22.0185 26.932 21.8055C27.145 21.5925 27.251 21.324 27.25 21C27.249 20.676 27.1425 20.4075 26.9305 20.1945C26.7185 19.9815 26.45 19.875 26.125 19.875H20.875C20.55 19.875 20.2815 19.9815 20.0695 20.1945C19.8575 20.4075 19.751 20.676 19.75 21C19.749 21.324 19.8555 21.593 20.0695 21.807C20.2835 22.021 20.552 22.127 20.875 22.125ZM23.5 14.325L24.8125 15.6375C25.0375 15.8625 25.3 15.975 25.6 15.975C25.9 15.975 26.1625 15.8625 26.3875 15.6375C26.5875 15.4375 26.6935 15.181 26.7055 14.868C26.7175 14.555 26.624 14.2865 26.425 14.0625L25.075 12.675L26.3875 11.3625C26.6125 11.1375 26.725 10.875 26.725 10.575C26.725 10.275 26.6125 10.0125 26.3875 9.7875C26.1625 9.5625 25.9 9.45 25.6 9.45C25.3 9.45 25.0375 9.5625 24.8125 9.7875L23.5 11.1L22.1875 9.7875C21.9625 9.5625 21.7 9.45 21.4 9.45C21.1 9.45 20.8375 9.5625 20.6125 9.7875C20.3875 10.0125 20.275 10.275 20.275 10.575C20.275 10.875 20.3875 11.1375 20.6125 11.3625L21.925 12.675L20.575 14.0625C20.375 14.2875 20.275 14.55 20.275 14.85C20.275 15.15 20.3875 15.4125 20.6125 15.6375C20.8375 15.8625 21.1 15.975 21.4 15.975C21.7 15.975 21.9625 15.8625 22.1875 15.6375L23.5 14.325ZM10.75 13.8H16C16.325 13.8 16.594 13.694 16.807 13.482C17.02 13.27 17.126 13.001 17.125 12.675C17.124 12.349 17.0175 12.0805 16.8055 11.8695C16.5935 11.6585 16.325 11.552 16 11.55H10.75C10.425 11.55 10.1565 11.6565 9.9445 11.8695C9.7325 12.0825 9.626 12.351 9.625 12.675C9.624 12.999 9.7305 13.268 9.9445 13.482C10.1585 13.696 10.427 13.802 10.75 13.8ZM7.75 31.5C6.925 31.5 6.219 31.2065 5.632 30.6195C5.045 30.0325 4.751 29.326 4.75 28.5V7.5C4.75 6.675 5.044 5.969 5.632 5.382C6.22 4.795 6.926 4.501 7.75 4.5H28.75C29.575 4.5 30.2815 4.794 30.8695 5.382C31.4575 5.97 31.751 6.676 31.75 7.5V28.5C31.75 29.325 31.4565 30.0315 30.8695 30.6195C30.2825 31.2075 29.576 31.501 28.75 31.5H7.75ZM7.75 28.5H28.75V7.5H7.75V28.5Z" fill="black"/>
</svg>
