<svg width="24" height="23" viewBox="0 0 24 23" fill="none" xmlns="http://www.w3.org/2000/svg">
<path d="M12 19.0334L6.46668 22.3667C6.22223 22.5223 5.96668 22.5889 5.70001 22.5667C5.43334 22.5445 5.20001 22.4556 5.00001 22.3001C4.80001 22.1445 4.64446 21.9503 4.53334 21.7174C4.42223 21.4845 4.40001 21.2232 4.46668 20.9334L5.93334 14.6334L1.03334 10.4001C0.811122 10.2001 0.672456 9.97206 0.617345 9.71606C0.562234 9.46006 0.578678 9.21028 0.666678 8.96672C0.754678 8.72317 0.888011 8.52317 1.06668 8.36672C1.24534 8.21028 1.48979 8.11028 1.80001 8.06672L8.26668 7.50006L10.7667 1.56672C10.8778 1.30006 11.0502 1.10006 11.284 0.966723C11.5178 0.83339 11.7565 0.766724 12 0.766724C12.2436 0.766724 12.4822 0.83339 12.716 0.966723C12.9498 1.10006 13.1222 1.30006 13.2333 1.56672L15.7333 7.50006L22.2 8.06672C22.5111 8.11117 22.7556 8.21117 22.9333 8.36672C23.1111 8.52228 23.2445 8.72228 23.3333 8.96672C23.4222 9.21117 23.4391 9.46139 23.384 9.71739C23.3289 9.97339 23.1898 10.2009 22.9667 10.4001L18.0667 14.6334L19.5333 20.9334C19.6 21.2223 19.5778 21.4836 19.4667 21.7174C19.3556 21.9512 19.2 22.1454 19 22.3001C18.8 22.4547 18.5667 22.5436 18.3 22.5667C18.0333 22.5898 17.7778 22.5232 17.5333 22.3667L12 19.0334Z" fill="currentColor"/>
</svg>
