<svg width="36" height="36" viewBox="0 0 36 36" fill="none" xmlns="http://www.w3.org/2000/svg">
<path d="M11.7375 18L17.55 23.85C17.825 24.125 17.969 24.469 17.982 24.882C17.995 25.295 17.851 25.651 17.55 25.95C17.275 26.225 16.925 26.3625 16.5 26.3625C16.075 26.3625 15.725 26.225 15.45 25.95L8.55 19.05C8.4 18.9 8.2935 18.7375 8.2305 18.5625C8.1675 18.3875 8.137 18.2 8.139 18C8.141 17.8 8.1725 17.6125 8.2335 17.4375C8.2945 17.2625 8.4005 17.1 8.5515 16.95L15.4515 10.05C15.7265 9.77503 16.0705 9.63153 16.4835 9.61953C16.8965 9.60753 17.2525 9.75103 17.5515 10.05C17.8265 10.325 17.964 10.675 17.964 11.1C17.964 11.525 17.8265 11.875 17.5515 12.15L11.7375 18ZM21.6375 18L27.45 23.85C27.725 24.125 27.869 24.469 27.882 24.882C27.895 25.295 27.751 25.651 27.45 25.95C27.175 26.225 26.825 26.3625 26.4 26.3625C25.975 26.3625 25.625 26.225 25.35 25.95L18.45 19.05C18.3 18.9 18.1935 18.7375 18.1305 18.5625C18.0675 18.3875 18.037 18.2 18.039 18C18.041 17.8 18.0725 17.6125 18.1335 17.4375C18.1945 17.2625 18.3005 17.1 18.4515 16.95L25.3515 10.05C25.6265 9.77503 25.9705 9.63153 26.3835 9.61953C26.7965 9.60753 27.1525 9.75103 27.4515 10.05C27.7265 10.325 27.864 10.675 27.864 11.1C27.864 11.525 27.7265 11.875 27.4515 12.15L21.6375 18Z" fill="#1D1D1F"/>
</svg>
