<svg width="37" height="36" viewBox="0 0 37 36" fill="none" xmlns="http://www.w3.org/2000/svg">
<path d="M14.25 13.5V30H24.75V25.5C24.75 25.075 24.894 24.719 25.182 24.432C25.47 24.145 25.826 24.001 26.25 24H30.75V13.5H14.25ZM11.25 30V13.4625C11.25 12.6375 11.55 11.9375 12.15 11.3625C12.75 10.7875 13.4625 10.5 14.2875 10.5H30.75C31.575 10.5 32.2815 10.7935 32.8695 11.3805C33.4575 11.9675 33.751 12.674 33.75 13.5V24.2625C33.75 24.6625 33.675 25.044 33.525 25.407C33.375 25.77 33.1625 26.0885 32.8875 26.3625L27.1125 32.1375C26.8375 32.4125 26.5185 32.625 26.1555 32.775C25.7925 32.925 25.4115 33 25.0125 33H14.25C13.425 33 12.719 32.7065 12.132 32.1195C11.545 31.5325 11.251 30.826 11.25 30ZM3.78751 9.37502C3.63751 8.55002 3.8 7.80652 4.275 7.14452C4.75001 6.48252 5.40001 6.07602 6.22501 5.92502L22.5 3.03752C23.3 2.88752 24.025 3.05652 24.675 3.54452C25.325 4.03252 25.75 4.67602 25.95 5.47502L26.2125 6.63752C26.3375 7.13752 26.2625 7.53752 25.9875 7.83752C25.7125 8.13752 25.3875 8.31252 25.0125 8.36252C24.6375 8.41252 24.2815 8.34402 23.9445 8.15702C23.6075 7.97002 23.376 7.62602 23.25 7.12502L22.9875 6.00002L6.75001 8.88752L9.00001 21.7875C9.07501 22.2125 9 22.5935 8.775 22.9305C8.55 23.2675 8.225 23.474 7.8 23.55C7.375 23.626 7.00001 23.545 6.67501 23.307C6.35001 23.069 6.15001 22.7375 6.07501 22.3125L3.78751 9.37502Z" fill="#1D1D1F"/>
</svg>
