<svg width="36" height="36" viewBox="0 0 36 36" fill="none" xmlns="http://www.w3.org/2000/svg">
<path d="M14.3625 18L8.54999 12.15C8.27499 11.875 8.13099 11.5315 8.11799 11.1195C8.10499 10.7075 8.24899 10.351 8.54999 10.05C8.82499 9.77501 9.17499 9.63751 9.59999 9.63751C10.025 9.63751 10.375 9.77501 10.65 10.05L17.55 16.95C17.7 17.1 17.8065 17.2625 17.8695 17.4375C17.9325 17.6125 17.9635 17.8 17.9625 18C17.9615 18.2 17.9305 18.3875 17.8695 18.5625C17.8085 18.7375 17.702 18.9 17.55 19.05L10.65 25.95C10.375 26.225 10.0315 26.369 9.61949 26.382C9.20749 26.395 8.85099 26.251 8.54999 25.95C8.27499 25.675 8.13749 25.325 8.13749 24.9C8.13749 24.475 8.27499 24.125 8.54999 23.85L14.3625 18ZM24.2625 18L18.45 12.15C18.175 11.875 18.031 11.5315 18.018 11.1195C18.005 10.7075 18.149 10.351 18.45 10.05C18.725 9.77501 19.075 9.63751 19.5 9.63751C19.925 9.63751 20.275 9.77501 20.55 10.05L27.45 16.95C27.6 17.1 27.7065 17.2625 27.7695 17.4375C27.8325 17.6125 27.8635 17.8 27.8625 18C27.8615 18.2 27.8305 18.3875 27.7695 18.5625C27.7085 18.7375 27.602 18.9 27.45 19.05L20.55 25.95C20.275 26.225 19.9315 26.369 19.5195 26.382C19.1075 26.395 18.751 26.251 18.45 25.95C18.175 25.675 18.0375 25.325 18.0375 24.9C18.0375 24.475 18.175 24.125 18.45 23.85L24.2625 18Z" fill="#1D1D1F"/>
</svg>
