<svg width="22" height="22" viewBox="0 0 22 22" fill="none" xmlns="http://www.w3.org/2000/svg">
<path d="M17.6667 21.6667C17.2889 21.6667 16.9725 21.5387 16.7173 21.2827C16.4622 21.0267 16.3342 20.7103 16.3333 20.3334V13.6667C16.3333 13.2889 16.4613 12.9725 16.7173 12.7174C16.9733 12.4623 17.2898 12.3343 17.6667 12.3334H20.3333C20.7111 12.3334 21.028 12.4614 21.284 12.7174C21.54 12.9734 21.6676 13.2898 21.6667 13.6667V20.3334C21.6667 20.7112 21.5387 21.028 21.2827 21.284C21.0267 21.54 20.7102 21.6676 20.3333 21.6667H17.6667ZM9.66668 21.6667C9.2889 21.6667 8.97246 21.5387 8.71734 21.2827C8.46223 21.0267 8.33423 20.7103 8.33334 20.3334V1.66671C8.33334 1.28893 8.46134 0.972485 8.71734 0.717374C8.97334 0.462263 9.28979 0.334263 9.66668 0.333374H12.3333C12.7111 0.333374 13.028 0.461374 13.284 0.717374C13.54 0.973374 13.6676 1.28982 13.6667 1.66671V20.3334C13.6667 20.7112 13.5387 21.028 13.2827 21.284C13.0267 21.54 12.7102 21.6676 12.3333 21.6667H9.66668ZM1.66668 21.6667C1.2889 21.6667 0.972455 21.5387 0.717344 21.2827C0.462233 21.0267 0.334232 20.7103 0.333344 20.3334V8.33337C0.333344 7.9556 0.461344 7.63915 0.717344 7.38404C0.973344 7.12893 1.28979 7.00093 1.66668 7.00004H4.33334C4.71112 7.00004 5.02801 7.12804 5.28401 7.38404C5.54001 7.64004 5.66757 7.95649 5.66668 8.33337V20.3334C5.66668 20.7112 5.53868 21.028 5.28268 21.284C5.02668 21.54 4.71023 21.6676 4.33334 21.6667H1.66668Z" fill="currentColor"/>
</svg>
