<svg width="37" height="36" viewBox="0 0 37 36" fill="none" xmlns="http://www.w3.org/2000/svg">
<path d="M15.5 4.5C15.075 4.5 14.719 4.356 14.432 4.068C14.145 3.78 14.001 3.424 14 3C13.999 2.576 14.143 2.22 14.432 1.932C14.721 1.644 15.077 1.5 15.5 1.5H21.5C21.925 1.5 22.2815 1.644 22.5695 1.932C22.8575 2.22 23.001 2.576 23 3C22.999 3.424 22.855 3.7805 22.568 4.0695C22.281 4.3585 21.925 4.502 21.5 4.5H15.5ZM18.5 21C18.925 21 19.2815 20.856 19.5695 20.568C19.8575 20.28 20.001 19.924 20 19.5V13.5C20 13.075 19.856 12.719 19.568 12.432C19.28 12.145 18.924 12.001 18.5 12C18.076 11.999 17.72 12.143 17.432 12.432C17.144 12.721 17 13.077 17 13.5V19.5C17 19.925 17.144 20.2815 17.432 20.5695C17.72 20.8575 18.076 21.001 18.5 21ZM18.5 33C16.65 33 14.906 32.644 13.268 31.932C11.63 31.22 10.199 30.251 8.975 29.025C7.751 27.799 6.7825 26.3675 6.0695 24.7305C5.3565 23.0935 5 21.35 5 19.5C5 17.65 5.3565 15.906 6.0695 14.268C6.7825 12.63 7.751 11.199 8.975 9.975C10.199 8.751 11.6305 7.7825 13.2695 7.0695C14.9085 6.3565 16.652 6 18.5 6C20.05 6 21.5375 6.25 22.9625 6.75C24.3875 7.25 25.725 7.975 26.975 8.925L28.025 7.875C28.3 7.6 28.65 7.4625 29.075 7.4625C29.5 7.4625 29.85 7.6 30.125 7.875C30.4 8.15 30.5375 8.5 30.5375 8.925C30.5375 9.35 30.4 9.7 30.125 9.975L29.075 11.025C30.025 12.275 30.75 13.6125 31.25 15.0375C31.75 16.4625 32 17.95 32 19.5C32 21.35 31.6435 23.094 30.9305 24.732C30.2175 26.37 29.249 27.801 28.025 29.025C26.801 30.249 25.3695 31.218 23.7305 31.932C22.0915 32.646 20.348 33.002 18.5 33ZM18.5 30C21.4 30 23.875 28.975 25.925 26.925C27.975 24.875 29 22.4 29 19.5C29 16.6 27.975 14.125 25.925 12.075C23.875 10.025 21.4 9 18.5 9C15.6 9 13.125 10.025 11.075 12.075C9.025 14.125 8 16.6 8 19.5C8 22.4 9.025 24.875 11.075 26.925C13.125 28.975 15.6 30 18.5 30Z" fill="#1D1D1F"/>
</svg>
