<svg width="30" height="36" viewBox="0 0 30 36" fill="none" xmlns="http://www.w3.org/2000/svg">
<path d="M11.6667 3.99999C11.1944 3.99999 10.7989 3.83999 10.48 3.51999C10.1611 3.19999 10.0011 2.80443 10 2.33332C9.99889 1.86221 10.1589 1.46666 10.48 1.14666C10.8011 0.826656 11.1967 0.666656 11.6667 0.666656H18.3333C18.8056 0.666656 19.2017 0.826656 19.5217 1.14666C19.8417 1.46666 20.0011 1.86221 20 2.33332C19.9989 2.80443 19.8389 3.20055 19.52 3.52166C19.2011 3.84277 18.8056 4.00221 18.3333 3.99999H11.6667ZM15 22.3333C15.4722 22.3333 15.8683 22.1733 16.1883 21.8533C16.5083 21.5333 16.6678 21.1378 16.6667 20.6667V14C16.6667 13.5278 16.5067 13.1322 16.1867 12.8133C15.8667 12.4944 15.4711 12.3344 15 12.3333C14.5289 12.3322 14.1333 12.4922 13.8133 12.8133C13.4933 13.1344 13.3333 13.53 13.3333 14V20.6667C13.3333 21.1389 13.4933 21.535 13.8133 21.855C14.1333 22.175 14.5289 22.3344 15 22.3333ZM15 35.6667C12.9444 35.6667 11.0067 35.2711 9.18667 34.48C7.36667 33.6889 5.77667 32.6122 4.41667 31.25C3.05667 29.8878 1.98056 28.2972 1.18833 26.4783C0.396111 24.6594 0 22.7222 0 20.6667C0 18.6111 0.396111 16.6733 1.18833 14.8533C1.98056 13.0333 3.05667 11.4433 4.41667 10.0833C5.77667 8.72332 7.36722 7.64721 9.18833 6.85499C11.0094 6.06277 12.9467 5.66666 15 5.66666C16.7222 5.66666 18.375 5.94443 19.9583 6.49999C21.5417 7.05555 23.0278 7.8611 24.4167 8.91666L25.5833 7.74999C25.8889 7.44443 26.2778 7.29166 26.75 7.29166C27.2222 7.29166 27.6111 7.44443 27.9167 7.74999C28.2222 8.05555 28.375 8.44443 28.375 8.91666C28.375 9.38888 28.2222 9.77777 27.9167 10.0833L26.75 11.25C27.8056 12.6389 28.6111 14.125 29.1667 15.7083C29.7222 17.2917 30 18.9444 30 20.6667C30 22.7222 29.6039 24.66 28.8117 26.48C28.0194 28.3 26.9433 29.89 25.5833 31.25C24.2233 32.61 22.6328 33.6867 20.8117 34.48C18.9906 35.2733 17.0533 35.6689 15 35.6667ZM15 32.3333C18.2222 32.3333 20.9722 31.1944 23.25 28.9167C25.5278 26.6389 26.6667 23.8889 26.6667 20.6667C26.6667 17.4444 25.5278 14.6944 23.25 12.4167C20.9722 10.1389 18.2222 8.99999 15 8.99999C11.7778 8.99999 9.02778 10.1389 6.75 12.4167C4.47222 14.6944 3.33333 17.4444 3.33333 20.6667C3.33333 23.8889 4.47222 26.6389 6.75 28.9167C9.02778 31.1944 11.7778 32.3333 15 32.3333Z" fill="#F73558"/>
</svg>
